<svg xmlns="http://www.w3.org/2000/svg" viewBox="280 200 900 900">
  <rect x="0" y="0" width="1555.56" height="1000" fill="#54132B"/>
  <path fill="#F4E7E9" d="M1149.99,537.5c-89.68,95.75-157.41,135.25-213.45,124.22-60.53-11.81-84.95-75.61-104.53-126.81-7.31-18.9-19.24-50.18-27.57-57.05-5.74,1.69-30.15,13.39-87.54,98.34-10.69,15.87-30.27,22.5-48.83,16.43-19.13-6.19-31.51-23.63-30.83-43.54,3.6-117.24-19.35-146.72-28.58-148.07-34.99-5.63-149.99,116.79-201.29,265.66h-74.04c.34-56.15,1.35-255.53,0-331.59l67.51-1.24c.79,41.07.79,117.36.68,188.02,59.63-103.4,144.59-199.16,217.72-187.57,62.45,9.9,80.23,83.6,84.73,145.49,42.53-52.43,75.84-73.02,108.81-69.2,45.91,5.18,64.36,53.56,82.25,100.25,14.4,37.47,30.6,80,54.57,84.73,13.61,2.59,55.58-2.14,151.11-104.19l49.28,46.13Z"/>
</svg>
