<?xml version="1.0" encoding="UTF-8"?>
<svg id="Capa_1" data-name="Capa 1" xmlns="http://www.w3.org/2000/svg" viewBox="0 0 2846.15 1000">
  <defs>
    <style>
      .cls-1 {
        fill: #fff;
      }
    </style>
  </defs>
  <path class="cls-1" d="M514.9,525.21l-24.82-67.93-26.16,67.93h50.98ZM472.64,419.01h34.89l72.41,180.21h-38.03l-15.85-43.86h-73.71l-16.65,43.86h-35.73l72.66-180.21Z"/>
  <path class="cls-1" d="M579.94,537.92v-85.12h31.7v82.98c0,20.88,11.36,35.14,31.2,35.14s31.45-14.25,31.45-35.14v-82.98h31.7v85.07c0,38.33-24.57,62.1-63.14,62.1s-62.9-23.77-62.9-62.1v.05Z"/>
  <polygon class="cls-1" points="740.83 482.15 719.4 482.15 719.4 452.85 740.83 452.85 740.83 419.01 772.52 419.01 772.52 452.85 804.22 452.85 804.22 482.15 772.52 482.15 772.52 600.02 740.83 600.02 740.83 482.15"/>
  <polygon class="cls-1" points="888.18 399.97 920.33 399.97 885.59 442.48 859.43 442.48 888.18 399.97"/>
  <path class="cls-1" d="M915.74,508.12c-3.44-20.08-16.65-32.25-38.57-32.25-20.33,0-34.64,13.21-39.62,32.25h78.2ZM805.05,523.67c0-44.11,29.3-76.1,72.12-76.1s68.18,27.76,68.18,72.66c0,4.49-.25,8.47-.8,12.96h-108.35c3.44,21.93,19.29,37.53,42.01,37.53,16.65,0,29.85-8.47,37.28-24.02l26.66,13.21c-12.66,26.41-36.18,39.12-65.24,39.12-42.81,0-71.87-31.7-71.87-75.31v-.05Z"/>
  <path class="cls-1" d="M958.26,452.8h31.7c0,8.47,0,13.46-.25,21.38h.55c8.47-15.05,24.32-24.57,43.36-24.57,34.09,0,51.53,24.02,51.53,54.97v95.39h-31.7v-86.67c0-20.33-10.57-34.89-31.2-34.89s-32.25,16.4-32.25,36.18v85.37h-31.7v-147.17h-.05Z"/>
  <polygon class="cls-1" points="2189.31 482.15 2167.88 482.15 2167.88 452.85 2189.31 452.85 2189.31 419.01 2221.01 419.01 2221.01 452.85 2252.71 452.85 2252.71 482.15 2221.01 482.15 2221.01 600.02 2189.31 600.02 2189.31 482.15"/>
  <path class="cls-1" d="M2364.26,509.12c-3.44-20.08-16.65-32.25-38.57-32.25-20.33,0-34.64,13.21-39.62,32.25h78.2ZM2253.57,524.67c0-44.11,29.3-76.1,72.12-76.1s68.18,27.76,68.18,72.66c0,4.49-.25,8.47-.8,12.96h-108.35c3.44,21.93,19.29,37.53,42.01,37.53,16.65,0,29.85-8.47,37.28-24.02l26.66,13.21c-12.66,26.41-36.18,39.12-65.24,39.12-42.81,0-71.87-31.7-71.87-75.31v-.05Z"/>
  <path class="cls-1" d="M2028.49,452.8h31.7c0,8.47,0,13.46-.25,21.38h.55c8.47-15.05,24.32-24.57,43.36-24.57,34.09,0,51.53,24.02,51.53,54.97v95.39h-31.7v-86.67c0-20.33-10.57-34.89-31.2-34.89s-32.25,16.4-32.25,36.18v85.37h-31.7v-147.17h-.05Z"/>
  <polygon class="cls-1" points="1115.75 482.15 1094.37 482.15 1094.37 452.85 1115.75 452.85 1115.75 419.01 1147.44 419.01 1147.44 452.85 1179.14 452.85 1179.14 482.15 1147.44 482.15 1147.44 600.02 1115.75 600.02 1115.75 482.15"/>
  <path class="cls-1" d="M1189.46,452.8h31.7v147.17h-31.7v-147.17ZM1185.23,418.71c0-10.81,8.17-18.74,20.08-18.74s19.84,7.92,19.84,18.74-7.92,19.04-19.84,19.04-20.08-7.92-20.08-19.04Z"/>
  <path class="cls-1" d="M1235.46,523.92c0-43.61,28.81-75.31,72.12-75.31,29.85,0,52.33,14.8,64.49,42.01l-28.56,12.66c-7.13-15.6-19.04-25.92-35.93-25.92-25.12,0-40.72,20.33-40.72,46.5s15.35,47.05,40.72,47.05c17.19,0,29.06-10.57,35.93-26.41l28.81,12.41c-12.16,27.46-34.64,43.06-64.74,43.06-43.36,0-72.12-32.25-72.12-76.1v.05Z"/>
  <path class="cls-1" d="M1492.03,524.66c0-26.96-16.4-46-40.97-46s-40.42,20.08-40.42,46.25,16.4,45.7,40.42,45.7,40.97-18.74,40.97-45.95ZM1378.95,524.96c0-43.06,28.56-75.06,65.24-75.06,21.13,0,36.98,7.92,46.5,24.32h.55c-.25-7.38-.25-12.66-.25-21.38h31.7v147.17h-31.7c0-8.72,0-16.65.25-24.82h-.55c-10.02,15.35-27.46,24.32-46.25,24.32-38.03,0-65.54-31.45-65.54-74.51l.05-.05Z"/>
  <path class="cls-1" d="M2427.24,579.14c1.55,0,2.29-1,2.29-2.14s-.8-1.94-2.29-1.94h-2.84v4.14h2.84v-.05ZM2419.47,570.72h8.47c4.58,0,6.63,2.49,6.63,6.18,0,2.69-1.49,4.93-3.99,5.48l5.23,7.63-6.18.05-5.13-7.92h-.05v7.92h-4.93v-19.34h-.05ZM2440.95,580.44c0-8.57-5.73-14.95-14.35-14.95s-14.35,6.38-14.35,14.95,5.73,14.95,14.35,14.95,14.35-6.38,14.35-14.95ZM2407.01,580.44c0-11.41,8.12-19.54,19.64-19.54s19.54,8.12,19.54,19.54-8.12,19.54-19.54,19.54-19.64-8.07-19.64-19.54Z"/>
  <path class="cls-1" d="M1952.19,476.87c-20.33,0-34.64,13.21-39.62,32.25h78.2c-3.44-20.08-16.65-32.25-38.57-32.25ZM1952.19,448.57c42.81,0,68.18,27.76,68.18,72.66,0,4.49-.25,8.47-.8,12.96h-108.35c3.44,21.93,19.29,37.53,42.01,37.53,16.65,0,29.85-8.47,37.28-24.02l26.66,13.21c-12.66,26.41-36.18,39.12-65.24,39.12-29.63,0-52.67-15.18-64.05-38.99-30.94,29.11-55.5,40.85-76.39,36.74-26.81-5.23-37.63-33.49-46.3-56.17-3.24-8.37-8.52-22.23-12.21-25.27-2.54.75-13.36,5.93-38.77,43.56-4.73,7.03-13.41,9.97-21.63,7.28-8.47-2.74-13.95-10.47-13.66-19.29,1.59-51.93-8.57-64.99-12.66-65.59-15.5-2.49-66.43,51.73-89.16,117.67h-32.79c.15-24.87.6-113.18,0-146.87l29.9-.55c.35,18.19.35,51.98.3,83.28,26.41-45.8,64.04-88.21,96.44-83.08,27.66,4.39,35.53,37.03,37.53,64.44,18.84-23.22,33.59-32.34,48.19-30.65,20.33,2.29,28.51,23.72,36.43,44.41,6.38,16.6,13.56,35.43,24.17,37.53,5.83,1.11,23.4-.81,62.81-41.8-.01-.65-.02-1.3-.02-1.95v-.05c0-44.11,29.31-76.1,72.12-76.1Z"/>
</svg>