<?xml version="1.0" encoding="UTF-8"?>
<svg id="Capa_1" data-name="Capa 1" xmlns="http://www.w3.org/2000/svg" viewBox="0 0 2243 1260.82">
  <defs>
    <style>
      .cls-1 {
        fill-rule: evenodd;
      }

      .cls-1, .cls-2 {
        fill: #fff;
      }
    </style>
  </defs>
  <path class="cls-2" d="M540.42,550.44l-25.8-70.62-27.2,70.62h53ZM496.48,440.04h36.27l75.28,187.34h-39.53l-16.48-45.59h-76.63l-17.3,45.59h-37.15l75.54-187.34Z"/>
  <path class="cls-2" d="M608.02,563.66v-88.49h32.95v86.26c0,21.71,11.81,36.53,32.43,36.53s32.69-14.82,32.69-36.53v-86.26h32.95v88.44c0,39.84-25.54,64.55-65.64,64.55s-65.38-24.71-65.38-64.55v.05Z"/>
  <polygon class="cls-2" points="775.26 505.68 752.98 505.68 752.98 475.22 775.26 475.22 775.26 440.04 808.21 440.04 808.21 475.22 841.16 475.22 841.16 505.68 808.21 505.68 808.21 628.21 775.26 628.21 775.26 505.68"/>
  <polygon class="cls-2" points="928.6 420.25 962.37 420.25 925.87 464.92 898.38 464.92 928.6 420.25"/>
  <path class="cls-2" d="M957.55,533.88c-3.61-21.1-17.49-33.88-40.53-33.88-21.36,0-36.39,13.88-41.63,33.88h82.16ZM841.25,550.22c0-46.34,30.79-79.96,75.77-79.96s71.63,29.17,71.63,76.35c0,4.71-.26,8.9-.84,13.61h-113.84c3.61,23.04,20.26,39.43,44.14,39.43,17.49,0,31.37-8.9,39.17-25.24l28.01,13.88c-13.3,27.75-38.02,41.11-68.54,41.11-44.98,0-75.51-33.3-75.51-79.12v-.05Z"/>
  <path class="cls-2" d="M1001.3,475.16h32.95c0,8.81,0,13.99-.26,22.23h.57c8.81-15.65,25.28-25.54,45.07-25.54,35.44,0,53.57,24.97,53.57,57.15v99.16h-32.95v-90.1c0-21.14-10.98-36.27-32.43-36.27s-33.52,17.05-33.52,37.61v88.75h-32.95v-152.99h-.05Z"/>
  <polygon class="cls-2" points="1165.03 505.68 1142.8 505.68 1142.8 475.22 1165.03 475.22 1165.03 440.04 1197.98 440.04 1197.98 475.22 1230.93 475.22 1230.93 505.68 1197.98 505.68 1197.98 628.21 1165.03 628.21 1165.03 505.68"/>
  <path class="cls-2" d="M1241.65,475.17h32.95v152.99h-32.95v-152.99ZM1237.25,439.73c0-11.24,8.5-19.48,20.88-19.48s20.62,8.24,20.62,19.48-8.24,19.79-20.62,19.79-20.88-8.24-20.88-19.79Z"/>
  <path class="cls-2" d="M1289.47,549.1c0-45.33,29.95-78.28,74.97-78.28,31.03,0,54.4,15.39,67.04,43.67l-29.69,13.16c-7.41-16.22-19.79-26.94-37.35-26.94-26.11,0-42.33,21.14-42.33,48.34s15.96,48.91,42.33,48.91c17.87,0,30.2-10.98,37.35-27.46l29.95,12.9c-12.64,28.55-36.01,44.76-67.3,44.76-45.07,0-74.97-33.52-74.97-79.11v.05Z"/>
  <path class="cls-2" d="M1556.17,549.87c0-28.03-17.05-47.82-42.59-47.82s-42.02,20.88-42.02,48.08,17.05,47.51,42.02,47.51,42.59-19.48,42.59-47.77ZM1438.62,550.18c0-44.76,29.69-78.02,67.82-78.02,21.97,0,38.44,8.24,48.34,25.28h.57c-.26-7.67-.26-13.16-.26-22.23h32.95v152.99h-32.95c0-9.07,0-17.3.26-25.8h-.57c-10.41,15.96-28.55,25.28-48.08,25.28-39.53,0-68.13-32.69-68.13-77.45l.05-.05Z"/>
  <polygon class="cls-2" points="1555.09 717.99 1532.82 717.99 1532.82 687.53 1555.09 687.53 1555.09 652.35 1588.04 652.35 1588.04 687.53 1621 687.53 1621 717.99 1588.04 717.99 1588.04 840.52 1555.09 840.52 1555.09 717.99"/>
  <path class="cls-2" d="M1736.9,746.02c-3.57-20.88-17.3-33.52-40.1-33.52-21.14,0-36.01,13.73-41.19,33.52h81.29ZM1621.83,762.24c0-45.85,30.46-79.11,74.97-79.11s70.87,28.86,70.87,75.54c0,4.66-.26,8.81-.83,13.47h-112.63c3.57,22.8,20.05,39.01,43.67,39.01,17.3,0,31.03-8.81,38.75-24.97l27.72,13.73c-13.16,27.46-37.61,40.67-67.82,40.67-44.5,0-74.71-32.95-74.71-78.28v-.05Z"/>
  <path class="cls-2" d="M1387.9,687.53h32.95c0,8.81,0,13.99-.26,22.23h.57c8.81-15.65,25.28-25.54,45.07-25.54,35.44,0,53.57,24.97,53.57,57.15v99.16h-32.95v-90.1c0-21.14-10.98-36.27-32.43-36.27s-33.52,17.05-33.52,37.61v88.75h-32.95v-152.99h-.05Z"/>
  <path class="cls-2" d="M1802.37,818.82c1.61,0,2.38-1.04,2.38-2.23s-.83-2.02-2.38-2.02h-2.95v4.3h2.95v-.05ZM1794.29,810.06h8.81c4.77,0,6.89,2.59,6.89,6.42,0,2.8-1.55,5.13-4.14,5.7l5.44,7.93-6.42.05-5.34-8.24h-.05v8.24h-5.13v-20.1h-.05ZM1816.67,820.16c0-8.91-5.96-15.54-14.92-15.54s-14.92,6.63-14.92,15.54,5.96,15.54,14.92,15.54,14.92-6.63,14.92-15.54ZM1781.34,820.16c0-11.86,8.44-20.31,20.41-20.31s20.31,8.44,20.31,20.31-8.44,20.31-20.31,20.31-20.41-8.39-20.41-20.31Z"/>
  <path class="cls-1" d="M1308.59,712.5c-21.14,0-36.01,13.73-41.19,33.52h81.29c-3.57-20.88-17.3-33.52-40.1-33.52ZM1308.53,683.13c44.5,0,70.87,28.86,70.87,75.54,0,4.66-.26,8.81-.83,13.47h-112.63c3.57,22.8,20.05,39.01,43.67,39.01,17.3,0,31.03-8.81,38.75-24.97l27.72,13.73c-13.16,27.46-37.61,40.67-67.82,40.67-30.82,0-54.78-15.8-66.6-40.57-32.16,30.26-57.69,42.46-79.4,38.19-27.87-5.44-39.12-34.82-48.13-58.39-3.37-8.7-8.86-23.11-12.69-26.27-2.64.78-13.89,6.17-40.31,45.28-4.92,7.31-13.94,10.36-22.49,7.56-8.81-2.85-14.51-10.88-14.2-20.05,1.66-53.98-8.91-67.56-13.16-68.18-16.11-2.59-69.06,53.78-92.69,122.32h-34.09c.16-25.85.62-117.66,0-152.68l31.09-.57c.36,18.91.36,54.04.31,86.57,27.46-47.61,66.58-91.7,100.25-86.37,28.75,4.56,36.94,38.49,39.01,66.99,19.58-24.14,34.92-33.62,50.1-31.86,21.14,2.38,29.64,24.66,37.87,46.16,6.63,17.25,14.09,36.84,25.13,39.01,6.06,1.15,24.33-.85,65.3-43.47-.01-.65-.02-1.31-.02-1.97v-.05c0-45.85,30.46-79.11,74.97-79.11Z"/>
</svg>