<?xml version="1.0" encoding="UTF-8"?>
<svg id="Capa_1" data-name="Capa 1" xmlns="http://www.w3.org/2000/svg" viewBox="0 0 3555.9 800">
  <defs>
    <style>
      .cls-1 {
        fill: #fff;
      }
    </style>
  </defs>
  <path class="cls-1" d="M3068.03,410.16l-29.14-71.39-28.61,71.39h57.75ZM3005.73,421.12l-17.11,42.51c-2.67,6.6-4.01,12.03-4.01,16.31,0,5.88,2.67,10.07,8.02,12.57h-38.24c1.78,0,4.37-1.78,7.75-5.35,3.39-3.57,7.31-10.61,11.76-21.12l69.79-166.04,69.25,166.84c3.92,9.63,7.66,16.22,11.23,19.79,3.74,3.57,6.68,5.53,8.82,5.88h-44.38c4.46-2.14,6.68-5.44,6.68-9.89,0-3.74-1.43-9.09-4.28-16.04l-18.72-45.45h-66.58Z"/>
  <path class="cls-1" d="M2875.11,492.51c0,.53,1.07.18,3.21-1.07,2.14-1.43,4.1-3.92,5.88-7.49,1.78-3.74,2.67-9.18,2.67-16.31v-134.22c0-7.13-.89-12.48-2.67-16.04-1.6-3.74-3.48-6.24-5.61-7.49-2.14-1.25-3.21-1.69-3.21-1.34h42.51c0-.36-1.07.09-3.21,1.34-2.14,1.25-4.1,3.74-5.88,7.49-1.78,3.57-2.67,8.91-2.67,16.04v134.22c0,7.13.89,12.57,2.67,16.31,1.78,3.57,3.74,5.97,5.88,7.22,2.14,1.25,3.21,1.69,3.21,1.34h-42.78Z"/>
  <path class="cls-1" d="M2821.08,476.21c-6.77,5.53-15.6,10.16-26.47,13.9-10.87,3.74-21.84,5.61-32.89,5.61-16.58,0-32-3.83-46.26-11.5-14.26-7.66-25.76-18.72-34.49-33.15-8.56-14.44-12.83-31.37-12.83-50.8,0-18.18,3.92-34.49,11.76-48.93,8.02-14.44,19.34-25.67,33.96-33.69,14.79-8.2,32-12.3,51.6-12.3,20.86,0,39.39,4.55,55.61,13.64v29.68c-5.53-9.8-13.55-17.56-24.06-23.26-10.52-5.88-21.75-8.82-33.69-8.82-15.15,0-28.34,3.57-39.57,10.7-11.05,7.13-19.52,16.93-25.4,29.41-5.88,12.3-8.82,26.11-8.82,41.44,0,17.29,3.3,32.35,9.89,45.19,6.77,12.83,15.86,22.73,27.27,29.68,11.41,6.77,24.15,10.16,38.24,10.16,22.64,0,41.35-6.6,56.15-19.79v12.83Z"/>
  <path class="cls-1" d="M2618.72,308.55c-2.5.53-4.99,2.58-7.49,6.15-2.32,3.39-3.48,9.45-3.48,18.18v167.11l-136.9-159.62v128.07c0,8.56,1.52,14.62,4.55,18.18,3.03,3.39,5.97,5.35,8.82,5.88h-37.7c2.5-.53,4.99-2.5,7.49-5.88,2.67-3.57,4.01-9.71,4.01-18.45v-133.69c0-6.06-2.05-11.59-6.15-16.58-4.1-4.99-9.27-8.11-15.51-9.36h33.16l125.4,146.26v-121.92c0-13.73-4.63-21.84-13.9-24.33h37.7Z"/>
  <path class="cls-1" d="M2291.9,492.51c0,.53,1.07.18,3.21-1.07,2.14-1.43,4.01-4.1,5.61-8.02,1.78-4.1,2.67-9.98,2.67-17.65v-131.28c0-7.31-.89-12.83-2.67-16.58-1.6-3.92-3.48-6.6-5.61-8.02-2.14-1.43-3.21-1.87-3.21-1.34h96.79v26.74c-3.21-10.7-12.83-16.04-28.88-16.04h-37.17v75.94h45.99c3.57,0,6.6-.53,9.09-1.6,2.5-1.25,4.37-2.5,5.61-3.74s1.96-2.05,2.14-2.41v25.94c-.18-.36-.89-1.16-2.14-2.41-1.25-1.25-3.12-2.41-5.61-3.48-2.32-1.07-5.26-1.6-8.82-1.6h-46.26v75.94h41.71c8.02,0,14.88-1.6,20.59-4.81,5.88-3.39,10.07-7.66,12.57-12.83l-4.81,28.34h-100.8Z"/>
  <path class="cls-1" d="M2154.77,333.42c0-7.13-.89-12.48-2.67-16.04-1.6-3.74-3.48-6.24-5.61-7.49-2.14-1.25-3.21-1.69-3.21-1.34h42.51c0-.36-1.07.09-3.21,1.34-2.14,1.25-4.1,3.74-5.88,7.49-1.78,3.57-2.67,8.91-2.67,16.04v148.4h43.85c8.02,0,14.88-1.6,20.59-4.81,5.88-3.39,10.07-7.66,12.57-12.83l-4.81,28.34h-102.94c0,.53,1.07.18,3.21-1.07,2.14-1.43,4.01-4.1,5.61-8.02,1.78-4.1,2.67-9.98,2.67-17.65v-132.35Z"/>
  <path class="cls-1" d="M2041.81,410.16l-29.14-71.39-28.61,71.39h57.75ZM1979.51,421.12l-17.11,42.51c-2.67,6.6-4.01,12.03-4.01,16.31,0,5.88,2.67,10.07,8.02,12.57h-38.24c1.78,0,4.37-1.78,7.75-5.35s7.31-10.61,11.76-21.12l69.79-166.04,69.25,166.84c3.92,9.63,7.66,16.22,11.23,19.79,3.74,3.57,6.68,5.53,8.82,5.88h-44.38c4.46-2.14,6.68-5.44,6.68-9.89,0-3.74-1.43-9.09-4.28-16.04l-18.72-45.45h-66.58Z"/>
  <path class="cls-1" d="M1897.4,322.73c0-3.57-.98-6.6-2.94-9.09-1.96-2.67-4.99-4.37-9.09-5.08h44.92c-2.32.36-5.44,2.41-9.36,6.15-3.92,3.74-8.02,10.7-12.3,20.86l-67.65,163.37-68.72-164.17c-3.92-9.45-7.84-15.95-11.76-19.52-3.74-3.74-6.86-5.97-9.36-6.68h44.65c-4.81,1.25-7.22,4.37-7.22,9.36,0,2.67.62,5.53,1.87,8.56,1.25,3.03,1.96,4.81,2.14,5.35l51.87,127,50.27-123.53c1.78-4.1,2.67-8.29,2.67-12.57Z"/>
  <path class="cls-1" d="M1551.52,319.25c-7.84,0-14.35,1.52-19.52,4.55-5.17,3.03-8.91,6.86-11.23,11.5l3.74-26.74h126.74l3.74,26.74c-2.32-4.63-6.06-8.47-11.23-11.5-5.17-3.03-11.68-4.55-19.52-4.55h-26.74v148.4c0,7.13.89,12.57,2.67,16.31,1.78,3.74,3.74,6.24,5.88,7.49,2.14,1.25,3.21,1.6,3.21,1.07h-42.51c0,.53,1.07.18,3.21-1.07,2.14-1.25,4.01-3.65,5.61-7.22,1.78-3.74,2.67-9.27,2.67-16.58v-148.4h-26.74Z"/>
  <path class="cls-1" d="M1380.05,492.51c0,.53,1.07.18,3.21-1.07,2.14-1.43,4.01-4.1,5.61-8.02,1.78-4.1,2.67-9.98,2.67-17.65v-131.28c0-7.31-.89-12.83-2.67-16.58-1.6-3.92-3.48-6.6-5.61-8.02-2.14-1.43-3.21-1.87-3.21-1.34h96.79v26.74c-3.21-10.7-12.83-16.04-28.88-16.04h-37.17v75.94h45.99c3.57,0,6.6-.53,9.09-1.6,2.5-1.25,4.37-2.5,5.61-3.74,1.25-1.25,1.96-2.05,2.14-2.41v25.94c-.18-.36-.89-1.16-2.14-2.41-1.25-1.25-3.12-2.41-5.61-3.48-2.32-1.07-5.26-1.6-8.82-1.6h-46.26v75.94h41.71c8.02,0,14.88-1.6,20.59-4.81,5.88-3.39,10.07-7.66,12.57-12.83l-4.81,28.34h-100.8Z"/>
  <path class="cls-1" d="M1274.08,495.72c-9.27,0-18.18-1.25-26.74-3.74-8.56-2.67-16.22-6.33-22.99-10.96v-32.35c4.63,11.94,11.68,21.03,21.12,27.27,9.63,6.06,19.61,9.09,29.95,9.09s18.98-3.39,25.94-10.16c6.95-6.95,10.43-15.51,10.43-25.67,0-6.77-1.43-12.57-4.28-17.38-2.67-4.81-7.04-9.27-13.1-13.37-6.06-4.28-14.62-9-25.67-14.17-15.51-7.13-26.83-14.53-33.96-22.19-6.95-7.84-10.43-17.29-10.43-28.34,0-9.45,2.23-17.83,6.68-25.13,4.63-7.49,10.78-13.19,18.45-17.11,7.84-4.1,16.4-6.15,25.67-6.15,8.02,0,15.86,1.16,23.53,3.48,7.66,2.14,14.79,5.26,21.39,9.36v28.88c-4.28-9.8-10.78-17.38-19.52-22.73-8.56-5.53-17.29-8.29-26.2-8.29-10.16,0-18.36,3.3-24.6,9.89-6.24,6.6-9.36,14.44-9.36,23.53,0,6.6,1.87,12.3,5.61,17.11,3.74,4.63,8.29,8.56,13.64,11.76,5.53,3.21,13.19,7.13,22.99,11.76,9.98,4.81,18.18,9.27,24.6,13.37,6.42,4.1,11.76,9.45,16.04,16.04,4.28,6.6,6.42,14.62,6.42,24.06,0,10.7-2.58,19.96-7.75,27.81-4.99,7.84-11.76,13.9-20.32,18.18-8.38,4.1-17.56,6.15-27.54,6.15Z"/>
  <path class="cls-1" d="M1128.49,492.51c0,.53,1.07.18,3.21-1.07,2.14-1.43,4.1-3.92,5.88-7.49,1.78-3.74,2.67-9.18,2.67-16.31v-134.22c0-7.13-.89-12.48-2.67-16.04-1.6-3.74-3.48-6.24-5.61-7.49-2.14-1.25-3.21-1.69-3.21-1.34h42.51c0-.36-1.07.09-3.21,1.34-2.14,1.25-4.1,3.74-5.88,7.49-1.78,3.57-2.67,8.91-2.67,16.04v134.22c0,7.13.89,12.57,2.67,16.31,1.78,3.57,3.74,5.97,5.88,7.22s3.21,1.69,3.21,1.34h-42.78Z"/>
  <path class="cls-1" d="M991.63,333.42c0-7.13-.89-12.48-2.67-16.04-1.6-3.74-3.48-6.24-5.61-7.49-2.14-1.25-3.21-1.69-3.21-1.34h42.51c0-.36-1.07.09-3.21,1.34-2.14,1.25-4.1,3.74-5.88,7.49-1.78,3.57-2.67,8.91-2.67,16.04v148.4h43.85c8.02,0,14.88-1.6,20.59-4.81,5.88-3.39,10.07-7.66,12.57-12.83l-4.81,28.34h-102.94c0,.53,1.07.18,3.21-1.07,2.14-1.43,4.01-4.1,5.61-8.02,1.78-4.1,2.67-9.98,2.67-17.65v-132.35Z"/>
  <path class="cls-1" d="M908.54,495.19c-3.57,0-6.77-1.16-9.63-3.48-2.67-2.5-4.01-5.88-4.01-10.16s1.34-7.58,4.01-9.89c2.67-2.32,5.88-3.48,9.63-3.48s6.95,1.16,9.63,3.48c2.67,2.32,4.01,5.61,4.01,9.89s-1.43,7.66-4.28,10.16c-2.67,2.32-5.79,3.48-9.36,3.48Z"/>
  <path class="cls-1" d="M787.49,410.16l-29.14-71.39-28.61,71.39h57.75ZM725.19,421.12l-17.11,42.51c-2.67,6.6-4.01,12.03-4.01,16.31,0,5.88,2.67,10.07,8.02,12.57h-38.24c1.78,0,4.37-1.78,7.75-5.35,3.39-3.57,7.31-10.61,11.76-21.12l69.79-166.04,69.25,166.84c3.92,9.63,7.66,16.22,11.23,19.79,3.74,3.57,6.68,5.53,8.82,5.88h-44.38c4.46-2.14,6.68-5.44,6.68-9.89,0-3.74-1.43-9.09-4.28-16.04l-18.72-45.45h-66.58Z"/>
  <path class="cls-1" d="M566.06,400c8.2,0,15.33-1.87,21.39-5.61,6.06-3.92,10.61-8.91,13.64-14.97,3.21-6.24,4.81-12.75,4.81-19.52s-1.52-13.46-4.55-19.52c-2.85-6.24-7.31-11.32-13.37-15.24-6.06-3.92-13.46-5.88-22.19-5.88h-22.73v148.66c0,7.13.89,12.57,2.67,16.31,1.78,3.57,3.74,5.97,5.88,7.22,2.14,1.07,3.21,1.43,3.21,1.07h-42.51c0,.36,1.07-.09,3.21-1.34,2.14-1.25,4.01-3.65,5.61-7.22,1.78-3.57,2.67-8.91,2.67-16.04v-133.69c0-7.31-.89-12.83-2.67-16.58-1.6-3.92-3.48-6.51-5.61-7.75-2.14-1.43-3.21-1.87-3.21-1.34h52.94c13.9,0,25.31,2.32,34.22,6.95,9.09,4.46,15.6,10.34,19.52,17.65,4.1,7.13,6.15,14.97,6.15,23.53,0,7.13-1.69,14.17-5.08,21.12-3.39,6.77-8.29,12.75-14.71,17.91-6.24,4.99-13.55,8.47-21.92,10.43l-4.28.8,47.06,59.89c6.24,6.95,11.41,12.3,15.51,16.04,4.1,3.74,7.04,6.24,8.82,7.49,1.96,1.25,3.12,1.96,3.48,2.14h-31.28l-72.73-92.51h16.04Z"/>
  <path class="cls-1" d="M409.34,333.96c-7.84-5.17-16.22-8.91-25.13-11.23-8.91-2.32-19.52-3.48-31.82-3.48h-21.66v162.57h21.66c14.62,0,26.56-1.25,35.83-3.74,9.45-2.5,17.56-6.33,24.33-11.5,8.73-6.77,15.42-15.6,20.05-26.47,4.81-11.05,7.22-23.89,7.22-38.5,0-15.51-2.76-29.06-8.29-40.64-5.35-11.76-12.74-20.77-22.19-27.01ZM419.77,477.54c-16.76,9.98-39.13,14.97-67.11,14.97h-52.67c0,.53,1.07.09,3.21-1.34,2.14-1.6,4.01-4.46,5.61-8.56,1.78-4.1,2.67-10.07,2.67-17.91v-131.55c0-6.95-.89-12.21-2.67-15.78-1.6-3.74-3.48-6.24-5.61-7.49-2.14-1.25-3.21-1.69-3.21-1.34h52.41c27.27,0,48.84,4.46,64.71,13.37,14.08,7.84,24.96,18.45,32.62,31.82,7.66,13.37,11.5,28.43,11.5,45.19,0,18.18-3.65,33.96-10.96,47.33-7.13,13.19-17.29,23.62-30.48,31.28Z"/>
  <path class="cls-1" d="M3209.05,483.66v-33.82h17.1c4.14,0,7.18.89,9.12,2.66,2.03,1.69,3.04,3.93,3.04,6.71,0,1.94-.55,3.63-1.65,5.07-1.01,1.44-2.41,2.45-4.18,3.04v.13c1.94.42,3.29,1.18,4.05,2.28.76,1.1,1.14,2.58,1.14,4.43v7.6c.08.68.21,1.31.38,1.9h-7.73c-.25-.42-.42-.84-.51-1.27-.08-.51-.13-1.35-.13-2.53v-5.07c0-1.35-.3-2.36-.89-3.04-.59-.76-1.77-1.14-3.55-1.14h-9.75v-5.45h8.99c1.94,0,3.38-.42,4.31-1.27.93-.93,1.39-2.07,1.39-3.42,0-1.6-.55-2.74-1.65-3.42-1.01-.68-2.36-1.01-4.05-1.01h-7.6v27.61h-7.85ZM3222.6,494.81c5.23,0,9.92-1.18,14.06-3.55,4.22-2.36,7.56-5.61,10.01-9.75,2.53-4.22,3.8-9.03,3.8-14.44s-1.27-10.34-3.8-14.57c-2.45-4.22-5.78-7.47-10.01-9.75-4.14-2.36-8.82-3.55-14.06-3.55s-9.71,1.18-13.93,3.55c-4.22,2.36-7.56,5.66-10.01,9.88-2.45,4.14-3.67,8.95-3.67,14.44s1.22,10.3,3.67,14.44c2.45,4.14,5.78,7.39,10.01,9.75,4.22,2.36,8.87,3.55,13.93,3.55ZM3222.48,500c-6.25,0-11.86-1.39-16.84-4.18-4.98-2.79-8.95-6.67-11.91-11.65-2.96-4.98-4.43-10.72-4.43-17.22,0-4.9.84-9.33,2.53-13.3,1.69-4.05,4.01-7.51,6.97-10.39,3.04-2.96,6.59-5.23,10.64-6.84,4.05-1.6,8.4-2.41,13.05-2.41,6.25,0,11.91,1.39,16.97,4.18,5.07,2.79,9.08,6.63,12.03,11.53,2.96,4.9,4.43,10.64,4.43,17.22,0,4.81-.84,9.25-2.53,13.3-1.69,4.05-4.1,7.56-7.22,10.51-3.04,2.96-6.59,5.23-10.64,6.84-3.97,1.6-8.32,2.41-13.05,2.41Z"/>
</svg>