<?xml version="1.0" encoding="UTF-8"?>
<svg id="Capa_1" data-name="Capa 1" xmlns="http://www.w3.org/2000/svg" viewBox="0 0 2912.91 1137.17">
  <defs>
    <style>
      .cls-1 {
        fill: #fff;
      }
    </style>
  </defs>
  <g>
    <path class="cls-1" d="M2467.93,488.75l-29.14-71.39-28.61,71.39h57.75ZM2405.63,499.71l-17.11,42.51c-2.67,6.6-4.01,12.03-4.01,16.31,0,5.88,2.67,10.07,8.02,12.57h-38.24c1.78,0,4.37-1.78,7.75-5.35,3.39-3.57,7.31-10.61,11.76-21.12l69.79-166.04,69.25,166.84c3.92,9.63,7.67,16.22,11.23,19.79,3.74,3.57,6.68,5.53,8.82,5.88h-44.39c4.46-2.14,6.68-5.44,6.68-9.89,0-3.74-1.43-9.09-4.28-16.04l-18.72-45.45h-66.58Z"/>
    <path class="cls-1" d="M2275.01,571.1c0,.53,1.07.18,3.21-1.07,2.14-1.43,4.1-3.92,5.88-7.49,1.78-3.74,2.67-9.18,2.67-16.31v-134.22c0-7.13-.89-12.48-2.67-16.04-1.6-3.74-3.48-6.24-5.62-7.49-2.14-1.25-3.21-1.69-3.21-1.34h42.51c0-.36-1.07.09-3.21,1.34-2.14,1.25-4.1,3.74-5.88,7.49-1.78,3.57-2.67,8.91-2.67,16.04v134.22c0,7.13.89,12.57,2.67,16.31,1.78,3.57,3.74,5.97,5.88,7.22,2.14,1.25,3.21,1.69,3.21,1.34h-42.78Z"/>
    <path class="cls-1" d="M2220.97,554.79c-6.77,5.53-15.6,10.16-26.47,13.9-10.87,3.74-21.84,5.61-32.89,5.61-16.58,0-32-3.83-46.26-11.5-14.26-7.66-25.76-18.72-34.49-33.16-8.56-14.44-12.83-31.37-12.83-50.8,0-18.18,3.92-34.49,11.76-48.93,8.02-14.44,19.34-25.67,33.96-33.69,14.79-8.2,32-12.3,51.6-12.3,20.86,0,39.39,4.55,55.61,13.64v29.68c-5.53-9.8-13.55-17.56-24.06-23.26-10.52-5.88-21.75-8.82-33.69-8.82-15.15,0-28.34,3.57-39.57,10.7-11.05,7.13-19.52,16.93-25.4,29.41-5.88,12.3-8.82,26.11-8.82,41.44,0,17.29,3.3,32.35,9.89,45.19,6.77,12.83,15.86,22.73,27.27,29.68,11.41,6.77,24.15,10.16,38.24,10.16,22.64,0,41.35-6.6,56.15-19.79v12.83Z"/>
    <path class="cls-1" d="M2018.61,387.15c-2.5.53-4.99,2.58-7.49,6.15-2.32,3.39-3.48,9.45-3.48,18.18v167.11l-136.9-159.63v128.07c0,8.56,1.52,14.62,4.55,18.18,3.03,3.39,5.97,5.35,8.82,5.88h-37.7c2.5-.53,4.99-2.5,7.49-5.88,2.67-3.57,4.01-9.71,4.01-18.45v-133.69c0-6.06-2.05-11.59-6.15-16.58-4.1-4.99-9.27-8.11-15.51-9.36h33.16l125.4,146.26v-121.93c0-13.73-4.63-21.84-13.9-24.33h37.7Z"/>
    <path class="cls-1" d="M1691.79,571.1c0,.53,1.07.18,3.21-1.07,2.14-1.43,4.01-4.1,5.62-8.02,1.78-4.1,2.67-9.98,2.67-17.65v-131.28c0-7.31-.89-12.83-2.67-16.58-1.6-3.92-3.48-6.6-5.62-8.02s-3.21-1.87-3.21-1.34h96.79v26.74c-3.21-10.7-12.83-16.04-28.88-16.04h-37.17v75.94h45.99c3.57,0,6.6-.53,9.09-1.6,2.5-1.25,4.37-2.5,5.61-3.74,1.25-1.25,1.96-2.05,2.14-2.41v25.94c-.18-.36-.89-1.16-2.14-2.41-1.25-1.25-3.12-2.41-5.61-3.48-2.32-1.07-5.26-1.6-8.82-1.6h-46.26v75.94h41.71c8.02,0,14.88-1.6,20.59-4.81,5.88-3.39,10.07-7.66,12.57-12.83l-4.81,28.34h-100.8Z"/>
    <path class="cls-1" d="M1554.66,412.01c0-7.13-.89-12.48-2.67-16.04-1.6-3.74-3.48-6.24-5.61-7.49-2.14-1.25-3.21-1.69-3.21-1.34h42.51c0-.36-1.07.09-3.21,1.34-2.14,1.25-4.1,3.74-5.88,7.49-1.78,3.57-2.67,8.91-2.67,16.04v148.4h43.85c8.02,0,14.88-1.6,20.59-4.81,5.88-3.39,10.07-7.66,12.57-12.83l-4.81,28.34h-102.94c0,.53,1.07.18,3.21-1.07,2.14-1.43,4.01-4.1,5.61-8.02,1.78-4.1,2.67-9.98,2.67-17.65v-132.35Z"/>
    <path class="cls-1" d="M1441.7,488.75l-29.14-71.39-28.61,71.39h57.75ZM1379.4,499.71l-17.11,42.51c-2.67,6.6-4.01,12.03-4.01,16.31,0,5.88,2.67,10.07,8.02,12.57h-38.24c1.78,0,4.37-1.78,7.75-5.35,3.39-3.57,7.31-10.61,11.76-21.12l69.79-166.04,69.25,166.84c3.92,9.63,7.66,16.22,11.23,19.79,3.74,3.57,6.68,5.53,8.82,5.88h-44.39c4.46-2.14,6.68-5.44,6.68-9.89,0-3.74-1.43-9.09-4.28-16.04l-18.72-45.45h-66.58Z"/>
    <path class="cls-1" d="M1297.29,401.32c0-3.57-.98-6.6-2.94-9.09-1.96-2.67-4.99-4.37-9.09-5.08h44.92c-2.32.36-5.44,2.41-9.36,6.15-3.92,3.74-8.02,10.7-12.3,20.86l-67.65,163.37-68.72-164.17c-3.92-9.45-7.84-15.95-11.76-19.52-3.74-3.74-6.86-5.97-9.36-6.68h44.65c-4.81,1.25-7.22,4.37-7.22,9.36,0,2.67.62,5.53,1.87,8.56,1.25,3.03,1.96,4.81,2.14,5.35l51.87,127.01,50.27-123.53c1.78-4.1,2.67-8.29,2.67-12.57Z"/>
    <path class="cls-1" d="M951.41,397.84c-7.84,0-14.35,1.52-19.52,4.55-5.17,3.03-8.91,6.86-11.23,11.5l3.74-26.74h126.74l3.74,26.74c-2.32-4.63-6.06-8.47-11.23-11.5-5.17-3.03-11.68-4.55-19.52-4.55h-26.74v148.4c0,7.13.89,12.57,2.67,16.31,1.78,3.74,3.74,6.24,5.88,7.49,2.14,1.25,3.21,1.6,3.21,1.07h-42.51c0,.53,1.07.18,3.21-1.07,2.14-1.25,4.01-3.65,5.61-7.22,1.78-3.74,2.67-9.27,2.67-16.58v-148.4h-26.74Z"/>
    <path class="cls-1" d="M779.93,571.1c0,.53,1.07.18,3.21-1.07,2.14-1.43,4.01-4.1,5.61-8.02,1.78-4.1,2.67-9.98,2.67-17.65v-131.28c0-7.31-.89-12.83-2.67-16.58-1.6-3.92-3.48-6.6-5.61-8.02-2.14-1.43-3.21-1.87-3.21-1.34h96.79v26.74c-3.21-10.7-12.83-16.04-28.88-16.04h-37.17v75.94h45.99c3.57,0,6.6-.53,9.09-1.6,2.5-1.25,4.37-2.5,5.61-3.74,1.25-1.25,1.96-2.05,2.14-2.41v25.94c-.18-.36-.89-1.16-2.14-2.41-1.25-1.25-3.12-2.41-5.61-3.48-2.32-1.07-5.26-1.6-8.82-1.6h-46.26v75.94h41.71c8.02,0,14.88-1.6,20.59-4.81,5.88-3.39,10.07-7.66,12.57-12.83l-4.81,28.34h-100.8Z"/>
    <path class="cls-1" d="M673.96,574.31c-9.27,0-18.18-1.25-26.74-3.74-8.56-2.67-16.22-6.33-22.99-10.96v-32.35c4.63,11.94,11.68,21.03,21.12,27.27,9.63,6.06,19.61,9.09,29.95,9.09s18.98-3.39,25.94-10.16c6.95-6.95,10.43-15.51,10.43-25.67,0-6.77-1.43-12.57-4.28-17.38-2.67-4.81-7.04-9.27-13.1-13.37-6.06-4.28-14.62-9-25.67-14.17-15.51-7.13-26.83-14.53-33.96-22.19-6.95-7.84-10.43-17.29-10.43-28.34,0-9.45,2.23-17.83,6.68-25.13,4.63-7.49,10.78-13.19,18.45-17.11,7.84-4.1,16.4-6.15,25.67-6.15,8.02,0,15.86,1.16,23.53,3.48,7.66,2.14,14.79,5.26,21.39,9.36v28.88c-4.28-9.8-10.78-17.38-19.52-22.73-8.56-5.53-17.29-8.29-26.2-8.29-10.16,0-18.36,3.3-24.6,9.89-6.24,6.6-9.36,14.44-9.36,23.53,0,6.6,1.87,12.3,5.61,17.11,3.74,4.63,8.29,8.56,13.64,11.76,5.53,3.21,13.19,7.13,22.99,11.76,9.98,4.81,18.18,9.27,24.6,13.37,6.42,4.1,11.76,9.45,16.04,16.04,4.28,6.6,6.42,14.62,6.42,24.06,0,10.7-2.58,19.96-7.75,27.81-4.99,7.84-11.76,13.9-20.32,18.18-8.38,4.1-17.56,6.15-27.54,6.15Z"/>
    <path class="cls-1" d="M528.37,571.1c0,.53,1.07.18,3.21-1.07,2.14-1.43,4.1-3.92,5.88-7.49,1.78-3.74,2.67-9.18,2.67-16.31v-134.22c0-7.13-.89-12.48-2.67-16.04-1.6-3.74-3.48-6.24-5.61-7.49-2.14-1.25-3.21-1.69-3.21-1.34h42.51c0-.36-1.07.09-3.21,1.34-2.14,1.25-4.1,3.74-5.88,7.49-1.78,3.57-2.67,8.91-2.67,16.04v134.22c0,7.13.89,12.57,2.67,16.31,1.78,3.57,3.74,5.97,5.88,7.22,2.14,1.25,3.21,1.69,3.21,1.34h-42.78Z"/>
    <path class="cls-1" d="M391.51,412.01c0-7.13-.89-12.48-2.67-16.04-1.6-3.74-3.48-6.24-5.61-7.49-2.14-1.25-3.21-1.69-3.21-1.34h42.51c0-.36-1.07.09-3.21,1.34-2.14,1.25-4.1,3.74-5.88,7.49-1.78,3.57-2.67,8.91-2.67,16.04v148.4h43.85c8.02,0,14.88-1.6,20.59-4.81,5.88-3.39,10.07-7.66,12.57-12.83l-4.81,28.34h-102.94c0,.53,1.07.18,3.21-1.07,2.14-1.43,4.01-4.1,5.61-8.02,1.78-4.1,2.67-9.98,2.67-17.65v-132.35Z"/>
  </g>
  <g>
    <path class="cls-1" d="M639.93,758.51c-4.31,0-8.22-.69-11.73-2.08-3.46-1.39-6.46-3.39-9.01-6.01-2.5-2.62-4.41-5.77-5.74-9.45-1.33-3.68-1.99-7.8-1.99-12.34s.66-8.73,1.99-12.42c1.38-3.68,3.32-6.81,5.82-9.37,2.5-2.62,5.48-4.62,8.93-6.01,3.51-1.39,7.42-2.08,11.73-2.08,4.68,0,8.85.83,12.52,2.48,3.72,1.6,6.75,3.9,9.09,6.89,2.34,2.99,3.83,6.52,4.47,10.57h-6.94c-.53-2.72-1.68-5.13-3.43-7.21-1.7-2.08-3.88-3.71-6.54-4.89-2.66-1.23-5.72-1.84-9.17-1.84-4.41,0-8.22.96-11.41,2.88-3.19,1.92-5.66,4.67-7.42,8.25-1.7,3.52-2.55,7.77-2.55,12.74,0,3.68.51,7.02,1.52,10.01,1.01,2.94,2.42,5.45,4.23,7.53,1.86,2.03,4.09,3.6,6.7,4.73,2.66,1.07,5.64,1.6,8.93,1.6s6.51-.59,9.17-1.76c2.71-1.17,4.92-2.83,6.62-4.97,1.75-2.14,2.87-4.65,3.35-7.53h6.94c-.53,4.11-1.97,7.69-4.31,10.73-2.34,3.04-5.37,5.39-9.09,7.05-3.72,1.66-7.95,2.48-12.68,2.48Z"/>
    <polygon class="cls-1" points="683.92 757.79 683.92 699.39 690.7 699.39 690.7 753.46 689.11 751.54 719.34 751.54 719.34 757.79 683.92 757.79"/>
    <rect class="cls-1" x="736.15" y="699.39" width="6.78" height="58.4"/>
    <polygon class="cls-1" points="764.3 757.79 764.3 699.39 773 699.39 805.78 748.74 806.18 748.74 805.86 728.95 805.86 699.39 812.4 699.39 812.4 757.79 804.03 757.79 771.24 708.68 770.84 708.68 771.16 727.43 771.16 757.79 764.3 757.79"/>
    <rect class="cls-1" x="833.82" y="699.39" width="6.78" height="58.4"/>
    <path class="cls-1" d="M887.5,758.51c-4.31,0-8.22-.69-11.73-2.08-3.46-1.39-6.46-3.39-9.01-6.01-2.5-2.62-4.41-5.77-5.74-9.45-1.33-3.68-1.99-7.8-1.99-12.34s.66-8.73,1.99-12.42c1.38-3.68,3.32-6.81,5.82-9.37,2.5-2.62,5.48-4.62,8.93-6.01,3.51-1.39,7.42-2.08,11.73-2.08,4.68,0,8.85.83,12.52,2.48,3.72,1.6,6.75,3.9,9.09,6.89,2.34,2.99,3.83,6.52,4.47,10.57h-6.94c-.53-2.72-1.68-5.13-3.43-7.21-1.7-2.08-3.88-3.71-6.54-4.89-2.66-1.23-5.72-1.84-9.17-1.84-4.41,0-8.22.96-11.41,2.88-3.19,1.92-5.66,4.67-7.42,8.25-1.7,3.52-2.55,7.77-2.55,12.74,0,3.68.51,7.02,1.52,10.01,1.01,2.94,2.42,5.45,4.23,7.53,1.86,2.03,4.09,3.6,6.7,4.73,2.66,1.07,5.64,1.6,8.93,1.6s6.51-.59,9.17-1.76c2.71-1.17,4.92-2.83,6.62-4.97,1.75-2.14,2.87-4.65,3.35-7.53h6.94c-.53,4.11-1.97,7.69-4.31,10.73-2.34,3.04-5.37,5.39-9.09,7.05-3.72,1.66-7.95,2.48-12.68,2.48Z"/>
    <path class="cls-1" d="M937.34,743.45l1.04-5.61h27.04l1.04,5.61h-29.12ZM925.85,757.79l21.3-58.4h9.57l21.22,58.4h-7.1l-16.11-45.66-2.55-7.37h-.48l-2.47,7.37-16.19,45.66h-7.18Z"/>
    <polygon class="cls-1" points="994.62 757.79 994.62 699.39 1001.4 699.39 1001.4 753.46 999.81 751.54 1030.04 751.54 1030.04 757.79 994.62 757.79"/>
    <path class="cls-1" d="M1108.55,745.61l-4.31-3.52c1.06-1.82,1.91-3.68,2.55-5.61.64-1.92,1.09-3.82,1.36-5.69v-2.4h13l.64,5.45-8.62-.16c-.27,1.17-.64,2.46-1.12,3.85-.43,1.39-.96,2.78-1.6,4.17-.59,1.39-1.22,2.7-1.91,3.93ZM1085.97,758.59c-3.03,0-5.72-.61-8.06-1.84-2.34-1.28-4.2-3.04-5.58-5.29-1.33-2.24-1.99-4.83-1.99-7.77,0-2.67.61-5.13,1.83-7.37,1.28-2.24,3.06-4.22,5.34-5.93,2.29-1.76,4.95-3.28,7.98-4.57l3.19,3.85c-2.61,1.07-4.79,2.3-6.54,3.68-1.75,1.34-3.08,2.8-3.99,4.41-.85,1.6-1.28,3.36-1.28,5.29,0,3.04.96,5.5,2.87,7.37,1.91,1.82,4.39,2.72,7.42,2.72,3.56,0,6.62-.77,9.17-2.32,2.55-1.55,4.6-3.68,6.14-6.41l3.99,3.2c-1.44,2.4-3.19,4.43-5.26,6.09-2.07,1.66-4.41,2.88-7.02,3.68-2.55.8-5.29,1.2-8.22,1.2ZM1121.23,758.27c-2.39,0-4.63-.48-6.7-1.44-2.02-1.01-3.96-2.3-5.82-3.85-1.81-1.6-3.59-3.36-5.34-5.29l-15.71-17.38c-1.97-2.14-3.56-4.09-4.79-5.85-1.17-1.76-2.1-3.36-2.79-4.81-.64-1.44-1.09-2.78-1.36-4.01-.21-1.23-.32-2.38-.32-3.44,0-2.78.64-5.18,1.91-7.21,1.33-2.03,3.11-3.6,5.34-4.73,2.23-1.12,4.76-1.68,7.58-1.68,2.66,0,4.97.53,6.94,1.6,2.02,1.01,3.59,2.48,4.71,4.41,1.17,1.87,1.76,4.06,1.76,6.57,0,2.24-.56,4.35-1.68,6.33-1.06,1.98-2.66,3.79-4.79,5.45-2.07,1.66-4.65,3.2-7.74,4.65l-3.03-3.2c2.66-1.23,4.81-2.48,6.46-3.77,1.65-1.34,2.87-2.72,3.67-4.17.8-1.5,1.2-3.07,1.2-4.73,0-2.46-.69-4.35-2.07-5.69-1.38-1.34-3.22-2-5.5-2-2.55,0-4.6.72-6.14,2.16s-2.31,3.36-2.31,5.77c0,1.07.13,2.14.4,3.2.27,1.07.69,2.22,1.28,3.44.64,1.17,1.52,2.51,2.63,4.01,1.17,1.5,2.63,3.23,4.39,5.21l14.12,15.54c2.07,2.35,3.94,4.19,5.58,5.53,1.65,1.28,3.22,2.22,4.71,2.8,1.49.53,3,.8,4.55.8.53,0,1.01-.03,1.44-.08.48-.11.93-.27,1.36-.48l-.16,5.85c-.53.16-1.12.27-1.75.32-.64.11-1.3.16-1.99.16Z"/>
    <path class="cls-1" d="M1188.86,758.51c-5.05,0-9.25-.8-12.6-2.4-3.3-1.6-5.77-3.82-7.42-6.65-1.65-2.88-2.5-6.17-2.55-9.85h7.02c.05,2.72.64,5.1,1.75,7.13,1.17,2.03,2.87,3.58,5.11,4.65,2.29,1.07,5.21,1.6,8.77,1.6,3.03,0,5.66-.37,7.9-1.12,2.23-.75,3.96-1.9,5.19-3.44,1.28-1.55,1.91-3.52,1.91-5.93,0-1.87-.29-3.42-.88-4.65-.58-1.28-1.52-2.35-2.79-3.2s-2.95-1.58-5.03-2.16c-2.02-.64-4.52-1.2-7.5-1.68-3.3-.64-6.22-1.36-8.77-2.16-2.5-.8-4.6-1.79-6.3-2.96-1.65-1.23-2.9-2.72-3.75-4.49s-1.28-3.87-1.28-6.33c0-3.26.82-6.09,2.47-8.49,1.65-2.46,4.02-4.33,7.1-5.61,3.08-1.34,6.81-2,11.17-2s8.14.72,11.17,2.16c3.08,1.39,5.42,3.34,7.02,5.85,1.65,2.51,2.5,5.47,2.55,8.89h-6.94c-.11-2.56-.74-4.7-1.91-6.41-1.17-1.71-2.79-2.99-4.87-3.85-2.07-.85-4.52-1.28-7.34-1.28s-5.24.4-7.26,1.2c-1.97.8-3.48,1.92-4.55,3.36-1.06,1.44-1.6,3.2-1.6,5.29,0,2.24.51,4.01,1.52,5.29,1.06,1.28,2.79,2.32,5.18,3.12,2.39.8,5.64,1.55,9.73,2.24,2.61.43,5.11.99,7.5,1.68,2.39.69,4.52,1.66,6.38,2.88,1.86,1.23,3.32,2.88,4.39,4.97,1.12,2.03,1.68,4.67,1.68,7.93s-.85,6.11-2.55,8.57c-1.7,2.46-4.2,4.38-7.5,5.77-3.3,1.39-7.34,2.08-12.12,2.08Z"/>
    <path class="cls-1" d="M1229.18,757.79v-58.4h22.34c4.31,0,7.98.75,11.01,2.24,3.08,1.44,5.42,3.52,7.02,6.25,1.65,2.72,2.47,5.98,2.47,9.77s-.88,7-2.63,9.77c-1.7,2.72-4.09,4.83-7.18,6.33-3.03,1.44-6.62,2.16-10.77,2.16h-16.35v-5.61h15.87c4.63,0,8.11-1.15,10.45-3.44,2.39-2.3,3.59-5.31,3.59-9.05,0-4.01-1.25-7.08-3.75-9.21-2.45-2.14-5.88-3.2-10.29-3.2h-16.27l1.28-1.2v53.59h-6.78Z"/>
    <rect class="cls-1" x="1289.89" y="699.39" width="6.78" height="58.4"/>
    <path class="cls-1" d="M1318.05,757.79v-58.4h26.72c2.29,0,4.36.21,6.22.64,1.91.43,3.62,1.07,5.11,1.92,1.49.85,2.74,1.92,3.75,3.2,1.01,1.23,1.78,2.67,2.31,4.33.53,1.6.8,3.42.8,5.45,0,3.58-.9,6.62-2.71,9.13-1.76,2.46-4.36,4.17-7.82,5.13v.48c2.29.37,4.09,1.07,5.42,2.08,1.38.96,2.37,2.24,2.95,3.85.64,1.6.96,3.52.96,5.77v10.25c0,.96.03,1.95.08,2.96.11,1.01.4,2.08.88,3.2h-6.86c-.37-.85-.64-1.79-.8-2.8-.11-1.01-.16-2.22-.16-3.6v-8.81c0-2.14-.32-3.9-.96-5.29-.58-1.44-1.68-2.51-3.27-3.2-1.6-.75-3.86-1.12-6.78-1.12h-19.94v-5.69h19.38c4.57,0,7.82-1.04,9.73-3.12,1.97-2.14,2.95-4.86,2.95-8.17,0-1.87-.29-3.47-.88-4.81-.58-1.39-1.46-2.51-2.63-3.36-1.12-.91-2.45-1.55-3.99-1.92-1.54-.43-3.27-.64-5.19-.64h-18.51v52.55h-6.78Z"/>
    <rect class="cls-1" x="1382.35" y="699.39" width="6.78" height="58.4"/>
    <path class="cls-1" d="M1405.87,705.4v-6.01h44.59v6.01h-44.59ZM1424.7,757.79v-53.27h6.78v53.27h-6.78Z"/>
    <path class="cls-1" d="M1489.81,758.51c-4.84,0-9.01-.88-12.52-2.64-3.46-1.82-6.12-4.35-7.98-7.61-1.86-3.31-2.79-7.26-2.79-11.86v-37.01h6.78v36.85c0,3.58.66,6.57,1.99,8.97,1.33,2.35,3.24,4.11,5.74,5.29,2.5,1.17,5.45,1.76,8.85,1.76,3.72,0,6.81-.64,9.25-1.92,2.45-1.34,4.25-3.2,5.42-5.61,1.22-2.4,1.83-5.23,1.83-8.49v-36.85h6.7v37.01c0,4.49-.93,8.38-2.79,11.7-1.81,3.31-4.44,5.87-7.9,7.69-3.46,1.82-7.66,2.72-12.6,2.72Z"/>
    <path class="cls-1" d="M1538.48,743.45l1.04-5.61h27.04l1.04,5.61h-29.12ZM1526.99,757.79l21.3-58.4h9.57l21.22,58.4h-7.1l-16.11-45.66-2.55-7.37h-.48l-2.47,7.37-16.19,45.66h-7.18Z"/>
    <polygon class="cls-1" points="1595.76 757.79 1595.76 699.39 1602.54 699.39 1602.54 753.46 1600.95 751.54 1631.18 751.54 1631.18 757.79 1595.76 757.79"/>
    <path class="cls-1" d="M1674.19,757.79v-58.4h22.34c4.31,0,7.98.75,11.01,2.24,3.08,1.44,5.42,3.52,7.02,6.25,1.65,2.72,2.47,5.98,2.47,9.77s-.88,7-2.63,9.77c-1.7,2.72-4.09,4.83-7.18,6.33-3.03,1.44-6.62,2.16-10.77,2.16h-16.35v-5.61h15.87c4.63,0,8.11-1.15,10.45-3.44,2.39-2.3,3.59-5.31,3.59-9.05,0-4.01-1.25-7.08-3.75-9.21-2.45-2.14-5.88-3.2-10.29-3.2h-16.27l1.28-1.2v53.59h-6.78Z"/>
    <path class="cls-1" d="M1755.07,758.51c-5.05,0-9.25-.8-12.6-2.4-3.3-1.6-5.77-3.82-7.42-6.65-1.65-2.88-2.5-6.17-2.55-9.85h7.02c.05,2.72.64,5.1,1.75,7.13,1.17,2.03,2.87,3.58,5.11,4.65,2.29,1.07,5.21,1.6,8.77,1.6,3.03,0,5.66-.37,7.9-1.12,2.23-.75,3.96-1.9,5.19-3.44,1.28-1.55,1.91-3.52,1.91-5.93,0-1.87-.29-3.42-.88-4.65-.58-1.28-1.52-2.35-2.79-3.2-1.28-.85-2.95-1.58-5.03-2.16-2.02-.64-4.52-1.2-7.5-1.68-3.3-.64-6.22-1.36-8.77-2.16-2.5-.8-4.6-1.79-6.3-2.96-1.65-1.23-2.9-2.72-3.75-4.49-.85-1.76-1.28-3.87-1.28-6.33,0-3.26.82-6.09,2.47-8.49,1.65-2.46,4.02-4.33,7.1-5.61,3.08-1.34,6.81-2,11.17-2s8.14.72,11.17,2.16c3.08,1.39,5.42,3.34,7.02,5.85,1.65,2.51,2.5,5.47,2.55,8.89h-6.94c-.11-2.56-.74-4.7-1.91-6.41-1.17-1.71-2.79-2.99-4.87-3.85-2.07-.85-4.52-1.28-7.34-1.28s-5.24.4-7.26,1.2c-1.97.8-3.48,1.92-4.55,3.36-1.06,1.44-1.6,3.2-1.6,5.29,0,2.24.51,4.01,1.52,5.29,1.06,1.28,2.79,2.32,5.18,3.12,2.39.8,5.64,1.55,9.73,2.24,2.61.43,5.11.99,7.5,1.68,2.39.69,4.52,1.66,6.38,2.88,1.86,1.23,3.32,2.88,4.39,4.97,1.12,2.03,1.68,4.67,1.68,7.93s-.85,6.11-2.55,8.57c-1.7,2.46-4.2,4.38-7.5,5.77s-7.34,2.08-12.12,2.08Z"/>
    <polygon class="cls-1" points="1810.03 757.79 1810.03 734.48 1788.5 699.39 1796.31 699.39 1806.04 715.81 1813.14 728.31 1813.62 728.31 1820.88 715.81 1830.69 699.39 1838.43 699.39 1816.81 734.48 1816.81 757.79 1810.03 757.79"/>
    <path class="cls-1" d="M1877.19,758.51c-4.31,0-8.22-.69-11.73-2.08-3.46-1.39-6.46-3.39-9.01-6.01-2.5-2.62-4.41-5.77-5.74-9.45-1.33-3.68-1.99-7.8-1.99-12.34s.66-8.73,1.99-12.42c1.38-3.68,3.32-6.81,5.82-9.37,2.5-2.62,5.48-4.62,8.93-6.01,3.51-1.39,7.42-2.08,11.73-2.08,4.68,0,8.85.83,12.52,2.48,3.72,1.6,6.75,3.9,9.09,6.89,2.34,2.99,3.83,6.52,4.47,10.57h-6.94c-.53-2.72-1.68-5.13-3.43-7.21-1.7-2.08-3.88-3.71-6.54-4.89-2.66-1.23-5.72-1.84-9.17-1.84-4.41,0-8.22.96-11.41,2.88-3.19,1.92-5.66,4.67-7.42,8.25-1.7,3.52-2.55,7.77-2.55,12.74,0,3.68.51,7.02,1.52,10.01,1.01,2.94,2.42,5.45,4.23,7.53,1.86,2.03,4.09,3.6,6.7,4.73,2.66,1.07,5.64,1.6,8.93,1.6s6.51-.59,9.17-1.76c2.71-1.17,4.92-2.83,6.62-4.97,1.76-2.14,2.87-4.65,3.35-7.53h6.94c-.53,4.11-1.97,7.69-4.31,10.73-2.34,3.04-5.37,5.39-9.09,7.05-3.72,1.66-7.95,2.48-12.68,2.48Z"/>
    <path class="cls-1" d="M1925.97,730.63v-6.01h39.17v6.01h-39.17ZM1963.14,757.79v-58.4h6.78v58.4h-6.78ZM1921.18,757.79v-58.4h6.78v58.4h-6.78Z"/>
    <path class="cls-1" d="M2016.85,752.5c4.36,0,8.14-.96,11.33-2.88,3.24-1.98,5.72-4.73,7.42-8.25,1.76-3.58,2.63-7.82,2.63-12.74,0-3.74-.51-7.08-1.52-10.01-.96-2.94-2.39-5.42-4.31-7.45-1.86-2.08-4.09-3.66-6.7-4.73-2.61-1.12-5.56-1.68-8.85-1.68-4.41,0-8.22.96-11.41,2.88-3.19,1.92-5.66,4.67-7.42,8.25-1.7,3.52-2.55,7.77-2.55,12.74,0,3.68.51,7.02,1.52,10.01,1.01,2.94,2.42,5.45,4.23,7.53,1.86,2.03,4.09,3.6,6.7,4.73,2.66,1.07,5.64,1.6,8.93,1.6ZM2016.85,758.51c-4.31,0-8.22-.69-11.73-2.08-3.46-1.39-6.46-3.39-9.01-6.01-2.5-2.62-4.41-5.77-5.74-9.45s-1.99-7.8-1.99-12.34.66-8.73,1.99-12.42c1.38-3.68,3.32-6.81,5.82-9.37,2.5-2.62,5.48-4.62,8.93-6.01,3.51-1.39,7.42-2.08,11.73-2.08s8.19.69,11.65,2.08c3.46,1.39,6.43,3.39,8.93,6.01,2.55,2.62,4.49,5.77,5.82,9.45,1.33,3.63,1.99,7.74,1.99,12.34s-.69,8.73-2.07,12.42c-1.33,3.68-3.24,6.84-5.74,9.45-2.5,2.56-5.5,4.54-9.01,5.93-3.46,1.39-7.31,2.08-11.57,2.08Z"/>
    <polygon class="cls-1" points="2063.65 757.79 2063.65 699.39 2070.43 699.39 2070.43 753.46 2068.83 751.54 2099.06 751.54 2099.06 757.79 2063.65 757.79"/>
    <path class="cls-1" d="M2137.97,752.5c4.36,0,8.14-.96,11.33-2.88,3.24-1.98,5.72-4.73,7.42-8.25,1.76-3.58,2.63-7.82,2.63-12.74,0-3.74-.51-7.08-1.52-10.01-.96-2.94-2.39-5.42-4.31-7.45-1.86-2.08-4.09-3.66-6.7-4.73-2.61-1.12-5.56-1.68-8.85-1.68-4.41,0-8.22.96-11.41,2.88-3.19,1.92-5.66,4.67-7.42,8.25-1.7,3.52-2.55,7.77-2.55,12.74,0,3.68.51,7.02,1.52,10.01,1.01,2.94,2.42,5.45,4.23,7.53,1.86,2.03,4.09,3.6,6.7,4.73,2.66,1.07,5.64,1.6,8.93,1.6ZM2137.97,758.51c-4.31,0-8.22-.69-11.73-2.08-3.46-1.39-6.46-3.39-9.01-6.01-2.5-2.62-4.41-5.77-5.74-9.45-1.33-3.68-1.99-7.8-1.99-12.34s.66-8.73,1.99-12.42c1.38-3.68,3.32-6.81,5.82-9.37,2.5-2.62,5.48-4.62,8.93-6.01,3.51-1.39,7.42-2.08,11.73-2.08s8.19.69,11.65,2.08c3.46,1.39,6.43,3.39,8.93,6.01,2.55,2.62,4.49,5.77,5.82,9.45,1.33,3.63,1.99,7.74,1.99,12.34s-.69,8.73-2.07,12.42c-1.33,3.68-3.24,6.84-5.74,9.45-2.5,2.56-5.5,4.54-9.01,5.93-3.46,1.39-7.31,2.08-11.57,2.08Z"/>
    <path class="cls-1" d="M2211.91,758.51c-4.15,0-7.92-.69-11.33-2.08-3.4-1.39-6.33-3.39-8.77-6.01s-4.33-5.74-5.66-9.37c-1.28-3.63-1.91-7.69-1.91-12.18s.66-8.73,1.99-12.42c1.38-3.74,3.32-6.92,5.82-9.53,2.55-2.62,5.58-4.62,9.09-6.01,3.56-1.44,7.5-2.16,11.81-2.16,4.73,0,8.93.75,12.6,2.24,3.72,1.44,6.78,3.55,9.17,6.33s3.94,6.14,4.63,10.09h-7.02c-.64-2.62-1.83-4.86-3.59-6.73-1.75-1.87-3.96-3.31-6.62-4.33-2.66-1.07-5.72-1.6-9.17-1.6-4.57,0-8.48,1.01-11.73,3.04-3.19,1.98-5.64,4.78-7.34,8.41-1.7,3.58-2.55,7.77-2.55,12.58,0,3.63.48,6.92,1.44,9.85,1.01,2.94,2.45,5.45,4.31,7.53,1.86,2.08,4.12,3.68,6.78,4.81,2.66,1.07,5.64,1.6,8.93,1.6,3.88,0,7.34-.75,10.37-2.24,3.03-1.5,5.4-3.6,7.1-6.33,1.7-2.72,2.55-5.95,2.55-9.69v-3.85l1.91,1.84h-23.93v-5.37h29.2v30.84h-5.5l-.4-12.1h-.56c-.85,2.56-2.34,4.81-4.47,6.73-2.13,1.92-4.68,3.42-7.66,4.49-2.92,1.07-6.09,1.6-9.49,1.6Z"/>
    <polygon class="cls-1" points="2273.06 757.79 2273.06 734.48 2251.52 699.39 2259.34 699.39 2269.07 715.81 2276.17 728.31 2276.65 728.31 2283.91 715.81 2293.72 699.39 2301.45 699.39 2279.84 734.48 2279.84 757.79 2273.06 757.79"/>
  </g>
</svg>